<svg xmlns="http://www.w3.org/2000/svg" width="108" height="40" viewBox="0 0 108 40">
  <g id="Group_596" data-name="Group 596" transform="translate(-540 -765)">
    <g id="user" transform="translate(540 765)">
      <path id="Path_58" data-name="Path 58" d="M16.362,33.323l-5.968,3.255a5.363,5.363,0,0,0-.958.682,19.987,19.987,0,0,0,25.681.066,5.294,5.294,0,0,0-1.052-.7l-6.39-3.195a2.437,2.437,0,0,1-1.347-2.18V28.739a9.652,9.652,0,0,0,.6-.777,14.7,14.7,0,0,0,1.986-4,2.007,2.007,0,0,0,1.423-1.909V19.373a2,2,0,0,0-.669-1.483V14.021S30.469,8,22.316,8s-7.358,6.02-7.358,6.02V17.89a2,2,0,0,0-.669,1.483v2.676a2.006,2.006,0,0,0,.925,1.684,13.281,13.281,0,0,0,2.42,5.006v2.445A2.439,2.439,0,0,1,16.362,33.323Z" transform="translate(-2.315 -1.962)" fill="#e7eced"/>
      <g id="Group_474" data-name="Group 474" transform="translate(0 0)">
        <path id="Path_59" data-name="Path 59" d="M20.342,0A19.987,19.987,0,0,0,7.131,35.291a5.314,5.314,0,0,1,.949-.675l5.968-3.255a2.438,2.438,0,0,0,1.27-2.14V26.776A13.268,13.268,0,0,1,12.9,21.77a2.007,2.007,0,0,1-.925-1.684V17.41a2,2,0,0,1,.669-1.483V12.058S11.846,6.038,20,6.038s7.358,6.02,7.358,6.02v3.869a2,2,0,0,1,.669,1.483v2.676A2.007,2.007,0,0,1,26.6,22a14.7,14.7,0,0,1-1.986,4,9.652,9.652,0,0,1-.6.777v2.507a2.436,2.436,0,0,0,1.347,2.18l6.39,3.195a5.321,5.321,0,0,1,1.049.7A20,20,0,0,0,20.342,0Z" transform="translate(0 0)" fill="#556080"/>
      </g>
    </g>
    <text id="_0_Supporters" data-name="0
Supporters" transform="translate(619 786)" fill="#5a5a5a" font-size="22" font-family="HelveticaNeue-Bold, Helvetica Neue" font-weight="700"><tspan fill="#000"><tspan x="-6.116" y="0">0</tspan></tspan><tspan font-size="12" font-family="HelveticaNeue-Light, Helvetica Neue" font-weight="300"><tspan x="-28.782" y="13">Supporters</tspan></tspan></text>
  </g>
</svg>
