<svg id="clock-2" xmlns="http://www.w3.org/2000/svg" width="25.645" height="31.262" viewBox="0 0 25.645 31.262">
  <path id="Path_70" data-name="Path 70" d="M22.825,10.417,24.14,9.1a1.832,1.832,0,0,0-2.59-2.59l-1.4,1.4a12.825,12.825,0,0,0-4.881-2.064V4.03h1.221a.611.611,0,0,0,.611-.611V1.832A1.834,1.834,0,0,0,15.265,0H10.38A1.834,1.834,0,0,0,8.548,1.832V3.419a.611.611,0,0,0,.611.611H10.38V5.851A12.823,12.823,0,0,0,5.5,7.915l-1.4-1.4A1.832,1.832,0,0,0,1.5,9.1l1.314,1.315a12.822,12.822,0,1,0,20.006,0Zm-.412-3.041a.611.611,0,0,1,.863.863L22.014,9.5q-.426-.438-.893-.834ZM9.769,1.832a.611.611,0,0,1,.611-.611h4.885a.611.611,0,0,1,.611.611v.977H9.769Zm4.274,2.2V5.675a13.136,13.136,0,0,0-2.442,0V4.03ZM2.368,7.375a.611.611,0,0,1,.863,0L4.523,8.666q-.465.4-.893.834L2.368,8.239A.612.612,0,0,1,2.368,7.375ZM12.822,30.041A11.6,11.6,0,0,1,11.081,6.968a11.788,11.788,0,0,1,3.482,0A11.593,11.593,0,0,1,19.84,9.2a11.711,11.711,0,0,1,1.7,1.583,11.6,11.6,0,0,1-8.717,19.257Zm0,0" transform="translate(0)" fill="#8e8973"/>
  <path id="Path_71" data-name="Path 71" d="M181.832,200.548a1.832,1.832,0,0,0,.611-3.559v-4.379a.611.611,0,0,0-1.221,0v4.379a1.832,1.832,0,0,0,.611,3.559Zm0-2.442a.611.611,0,1,1-.611.611A.611.611,0,0,1,181.832,198.106Zm0,0" transform="translate(-169.009 -180.277)" fill="#8e8973"/>
  <path id="Path_72" data-name="Path 72" d="M75.663,160.067c-.01-.011-.019-.022-.03-.033s-.024-.022-.036-.033a9.192,9.192,0,0,0-3.848-2.278.611.611,0,1,0-.346,1.171,7.958,7.958,0,0,1,2.916,1.59l-.412.412a.611.611,0,0,0,.864.864l.413-.413a7.863,7.863,0,0,1,1.889,4.551h-.587a.611.611,0,1,0,0,1.221h.587a7.862,7.862,0,0,1-1.889,4.551l-.413-.413a.611.611,0,0,0-.864.864l.413.413a7.865,7.865,0,0,1-4.551,1.889v-.587a.611.611,0,0,0-1.221,0v.587A7.863,7.863,0,0,1,64,172.534l.413-.413a.611.611,0,0,0-.864-.864l-.413.413a7.863,7.863,0,0,1-1.889-4.551h.587a.611.611,0,1,0,0-1.221h-.587a7.863,7.863,0,0,1,1.889-4.551l.413.413a.611.611,0,1,0,.864-.864L64,160.484a7.954,7.954,0,0,1,2.916-1.59.611.611,0,1,0-.346-1.171A9.189,9.189,0,0,0,62.721,160c-.013.011-.025.022-.037.033s-.02.021-.029.032a9.144,9.144,0,0,0,0,12.884c.01.011.019.022.03.033s.021.02.032.03a9.144,9.144,0,0,0,12.884,0c.011-.01.022-.019.033-.03s.02-.021.029-.032a9.144,9.144,0,0,0,0-12.884Zm0,0" transform="translate(-56.336 -148.069)" fill="#8e8973"/>
  <path id="Path_73" data-name="Path 73" d="M200.611,153.221a.611.611,0,1,0-.611-.611A.611.611,0,0,0,200.611,153.221Zm0,0" transform="translate(-187.788 -142.719)" fill="#8e8973"/>
</svg>
