<svg xmlns="http://www.w3.org/2000/svg" width="20" height="20" viewBox="0 0 20 20"><defs><style>.a{fill:#005187;}</style></defs><path class="a" d="M10,0A10,10,0,1,0,20,10,10,10,0,0,0,10,0Zm8.649,13.5-2.844.491a14.923,14.923,0,0,0,.523-3.661h3A9.271,9.271,0,0,1,18.649,13.5ZM.675,10.333h3A14.923,14.923,0,0,0,4.2,13.994L1.351,13.5A9.271,9.271,0,0,1,.675,10.333ZM1.351,6.5,4.2,6.006a14.923,14.923,0,0,0-.523,3.661h-3A9.271,9.271,0,0,1,1.351,6.5Zm8.982-1.145a22.931,22.931,0,0,1,3.573.326l1.177.2a14.308,14.308,0,0,1,.578,3.785H10.333Zm3.687-.331a23.628,23.628,0,0,0-3.687-.336v-4c1.911.184,3.571,1.933,4.512,4.48ZM9.667,4.685a23.624,23.624,0,0,0-3.687.336l-.825.143C6.1,2.617,7.756.867,9.667.684Zm-3.573.993a22.925,22.925,0,0,1,3.573-.326V9.667H4.338a14.308,14.308,0,0,1,.578-3.785ZM4.338,10.333H9.667v4.315a22.931,22.931,0,0,1-3.573-.326l-1.177-.2A14.308,14.308,0,0,1,4.338,10.333ZM5.98,14.979a23.707,23.707,0,0,0,3.687.338v4c-1.911-.184-3.571-1.933-4.512-4.48Zm4.354.338a23.7,23.7,0,0,0,3.687-.338l.825-.143c-.941,2.547-2.6,4.3-4.512,4.48Zm3.573-.995a22.925,22.925,0,0,1-3.573.326V10.333h5.328a14.308,14.308,0,0,1-.578,3.785Zm2.422-4.655A14.923,14.923,0,0,0,15.8,6.006l2.844.491a9.271,9.271,0,0,1,.676,3.17Zm1.983-3.9-2.726-.47a9.192,9.192,0,0,0-2.652-4.15A9.378,9.378,0,0,1,18.311,5.762ZM7.067,1.142a9.192,9.192,0,0,0-2.652,4.15l-2.726.47A9.378,9.378,0,0,1,7.067,1.142Zm-5.378,13.1,2.726.47a9.192,9.192,0,0,0,2.652,4.15A9.378,9.378,0,0,1,1.689,14.238Zm11.245,4.62a9.192,9.192,0,0,0,2.652-4.15l2.726-.47A9.378,9.378,0,0,1,12.933,18.858Zm0,0"/></svg>