<svg xmlns="http://www.w3.org/2000/svg" width="68.382" height="65.214" viewBox="0 0 68.382 65.214">
  <g id="Group_31" data-name="Group 31" transform="translate(-342.5 -266.149)">
    <g id="Group_15" data-name="Group 15" transform="translate(342.5 266.149)">
      <path id="Path_28" data-name="Path 28" d="M375.107,331.363a32.607,32.607,0,1,1,0-65.214v.663a31.944,31.944,0,1,0,0,63.888Z" transform="translate(-342.5 -266.149)"/>
    </g>
    <g id="Group_16" data-name="Group 16" transform="translate(398.942 295.789)">
      <rect id="Rectangle_26" data-name="Rectangle 26" width="11.928" height="0.663"/>
    </g>
    <g id="Group_17" data-name="Group 17" transform="translate(379.337 288.901)">
      <path id="Path_29" data-name="Path 29" d="M620.246,442.467h4.347l-2.167-4.771Z" transform="translate(-620.246 -437.696)" fill="none"/>
    </g>
    <g id="Group_18" data-name="Group 18" transform="translate(388.019 288.854)">
      <path id="Path_30" data-name="Path 30" d="M690.89,439.165v-.024c0-1.107-.872-1.8-2.368-1.8h-2.816v3.711h2.78C689.865,441.05,690.89,440.355,690.89,439.165Z" transform="translate(-685.706 -437.339)" fill="none"/>
    </g>
    <g id="Group_19" data-name="Group 19" transform="translate(353.857 288.147)">
      <path id="Path_31" data-name="Path 31" d="M432.249,439.985a3.556,3.556,0,0,1-3.487-3.711v-.024a3.526,3.526,0,0,1,3.475-3.687,3.783,3.783,0,0,1,2.78,1.213l.436-.448a4.349,4.349,0,0,0-3.2-1.319,4.145,4.145,0,0,0-4.123,4.264v.024a4.1,4.1,0,0,0,4.1,4.241A4.348,4.348,0,0,0,435.5,439.1l-.412-.4A3.776,3.776,0,0,1,432.249,439.985Z" transform="translate(-428.126 -432.01)" fill="#5e5e5e"/>
    </g>
    <g id="Group_20" data-name="Group 20" transform="translate(362.916 288.288)">
      <path id="Path_32" data-name="Path 32" d="M501.884,440.758h-4.842v-7.681h-.613v8.246h5.454Z" transform="translate(-496.43 -433.077)" fill="#5e5e5e"/>
    </g>
    <g id="Group_21" data-name="Group 21" transform="translate(370.207 288.288)">
      <path id="Path_33" data-name="Path 33" d="M557.335,440.758h-5.313v-3.31h4.724v-.566h-4.724v-3.24h5.254v-.565H551.41v8.246h5.926Z" transform="translate(-551.41 -433.077)" fill="#5e5e5e"/>
    </g>
    <g id="Group_22" data-name="Group 22" transform="translate(404.956 299.164)">
      <path id="Path_34" data-name="Path 34" d="M819.335,522.758h-5.313v-3.31h4.724v-.565h-4.724v-3.24h5.254v-.565H813.41v8.246h5.925Z" transform="translate(-813.41 -515.077)" fill="#5e5e5e"/>
    </g>
    <g id="Group_23" data-name="Group 23" transform="translate(377.393 288.23)">
      <path id="Path_35" data-name="Path 35" d="M609.431,432.633l-3.84,8.3h.636l1.048-2.309h4.865l1.049,2.309h.672l-3.841-8.3Zm-1.9,5.442,2.18-4.771,2.167,4.771Z" transform="translate(-605.591 -432.633)" fill="#5e5e5e"/>
    </g>
    <g id="Group_24" data-name="Group 24" transform="translate(387.406 288.288)">
      <path id="Path_36" data-name="Path 36" d="M681.7,437.907h2.7l2.627,3.416h.777l-2.721-3.522c1.39-.188,2.415-.978,2.415-2.356v-.023a2.174,2.174,0,0,0-.624-1.532,3.25,3.25,0,0,0-2.321-.813h-3.463v8.246h.613Zm0-4.264h2.816c1.5,0,2.368.7,2.368,1.8v.024c0,1.19-1.025,1.885-2.4,1.885H681.7Z" transform="translate(-681.087 -433.077)" fill="#5e5e5e"/>
    </g>
    <g id="Group_25" data-name="Group 25" transform="translate(354.222 299.138)">
      <path id="Path_37" data-name="Path 37" d="M433.872,514.879H430.88v8.246h.613v-3.075h2.226c1.72,0,3.216-.9,3.216-2.627V517.4C436.935,515.81,435.686,514.879,433.872,514.879Zm2.45,2.58c0,1.225-1.036,2.026-2.568,2.026h-2.262v-4.041h2.332c1.484,0,2.5.683,2.5,1.991Z" transform="translate(-430.88 -514.879)" fill="#5e5e5e"/>
    </g>
    <g id="Group_26" data-name="Group 26" transform="translate(361.962 299.138)">
      <path id="Path_38" data-name="Path 38" d="M495.386,519.7c0,1.991-1.072,3-2.745,3-1.743,0-2.792-1.119-2.792-3.063v-4.759h-.612V519.7a3.217,3.217,0,0,0,3.381,3.557c2,0,3.381-1.26,3.381-3.628v-4.747h-.613Z" transform="translate(-489.237 -514.879)" fill="#5e5e5e"/>
    </g>
    <g id="Group_27" data-name="Group 27" transform="translate(371.044 299.138)">
      <path id="Path_39" data-name="Path 39" d="M564.125,517.247v-.024a2.175,2.175,0,0,0-.624-1.531,3.249,3.249,0,0,0-2.321-.813h-3.463v8.246h.613v-3.416h2.7l2.627,3.416h.777l-2.721-3.522C563.1,519.414,564.125,518.625,564.125,517.247Zm-5.8,1.908v-3.711h2.816c1.5,0,2.368.7,2.368,1.8v.023c0,1.19-1.025,1.885-2.4,1.885Z" transform="translate(-557.717 -514.879)" fill="#5e5e5e"/>
    </g>
    <g id="Group_28" data-name="Group 28" transform="translate(379.561 299.138)">
      <path id="Path_40" data-name="Path 40" d="M624.927,514.879h-2.992v8.246h.612v-3.075h2.227c1.72,0,3.216-.9,3.216-2.627V517.4C627.99,515.81,626.741,514.879,624.927,514.879Zm2.45,2.58c0,1.225-1.037,2.026-2.568,2.026h-2.262v-4.041h2.333c1.484,0,2.5.683,2.5,1.991Z" transform="translate(-621.935 -514.879)" fill="#5e5e5e"/>
    </g>
    <g id="Group_29" data-name="Group 29" transform="translate(387.065 298.997)">
      <path id="Path_41" data-name="Path 41" d="M682.673,513.815a4.15,4.15,0,0,0-4.158,4.264v.024a4.148,4.148,0,1,0,8.293-.024v-.023A4.11,4.11,0,0,0,682.673,513.815Zm3.5,4.288a3.529,3.529,0,0,1-3.5,3.687,3.569,3.569,0,0,1-3.522-3.711v-.023a3.529,3.529,0,0,1,3.5-3.687,3.569,3.569,0,0,1,3.522,3.711Z" transform="translate(-678.515 -513.815)" fill="#5e5e5e"/>
    </g>
    <g id="Group_30" data-name="Group 30" transform="translate(396.855 299.02)">
      <path id="Path_42" data-name="Path 42" d="M755.672,517.926c-1.956-.4-2.4-.931-2.4-1.8V516.1c0-.86.8-1.555,2.014-1.555a3.55,3.55,0,0,1,2.462.931l.389-.483a4.11,4.11,0,0,0-2.827-1,2.386,2.386,0,0,0-2.651,2.168v.023c0,1.249.8,1.92,2.78,2.321,1.873.377,2.332.884,2.332,1.755v.023c0,.943-.848,1.638-2.085,1.638a4,4,0,0,1-2.957-1.225l-.4.459a4.693,4.693,0,0,0,3.322,1.319c1.591,0,2.733-.919,2.733-2.25V520.2C758.381,519,757.58,518.315,755.672,517.926Z" transform="translate(-752.326 -513.991)" fill="#5e5e5e"/>
    </g>
  </g>
</svg>
