<svg id="Component_16_1" data-name="Component 16 – 1" xmlns="http://www.w3.org/2000/svg" width="35" height="35" viewBox="0 0 35 35">
  <g id="brands-and-logotypes" transform="translate(9 9.001)">
    <path id="Path_2534" data-name="Path 2534" d="M17.493,5.025a6.245,6.245,0,0,0-.4-2.073,4.378,4.378,0,0,0-2.5-2.5,6.261,6.261,0,0,0-2.073-.4C11.607.01,11.317,0,9,0S6.385.01,5.474.05A6.247,6.247,0,0,0,3.4.447a4.17,4.17,0,0,0-1.516.988A4.208,4.208,0,0,0,.9,2.948,6.262,6.262,0,0,0,.5,5.021C.459,5.936.449,6.227.449,8.547s.01,2.611.05,3.522a6.245,6.245,0,0,0,.4,2.073,4.377,4.377,0,0,0,2.5,2.5,6.262,6.262,0,0,0,2.073.4c.911.04,1.2.05,3.522.05s2.611-.01,3.522-.05a6.243,6.243,0,0,0,2.073-.4,4.372,4.372,0,0,0,2.5-2.5,6.266,6.266,0,0,0,.4-2.073c.04-.911.05-1.2.05-3.522S17.533,5.936,17.493,5.025ZM15.954,12a4.684,4.684,0,0,1-.294,1.586,2.835,2.835,0,0,1-1.623,1.623,4.7,4.7,0,0,1-1.586.294c-.9.04-1.172.05-3.452.05s-2.554-.01-3.452-.05a4.682,4.682,0,0,1-1.586-.294,2.63,2.63,0,0,1-.982-.638,2.657,2.657,0,0,1-.638-.982,4.7,4.7,0,0,1-.294-1.586C2.008,11.1,2,10.834,2,8.554S2.008,6,2.049,5.1a4.682,4.682,0,0,1,.294-1.586,2.6,2.6,0,0,1,.641-.982A2.653,2.653,0,0,1,3.965,1.9,4.7,4.7,0,0,1,5.551,1.6c.9-.04,1.172-.05,3.452-.05s2.554.01,3.452.05a4.685,4.685,0,0,1,1.586.294,2.628,2.628,0,0,1,.982.638,2.657,2.657,0,0,1,.638.982A4.7,4.7,0,0,1,15.954,5.1c.04.9.05,1.172.05,3.452S15.994,11.1,15.954,12Zm0,0" transform="translate(-0.449 0)" fill="#adadad"/>
    <path id="Path_2535" data-name="Path 2535" d="M129.34,124.5a4.39,4.39,0,1,0,4.39,4.39A4.392,4.392,0,0,0,129.34,124.5Zm0,7.238a2.848,2.848,0,1,1,2.848-2.848A2.848,2.848,0,0,1,129.34,131.738Zm0,0" transform="translate(-120.793 -120.343)" fill="#adadad"/>
    <path id="Path_2536" data-name="Path 2536" d="M364.5,89.627a1.025,1.025,0,1,1-1.025-1.025A1.025,1.025,0,0,1,364.5,89.627Zm0,0" transform="translate(-350.363 -85.643)" fill="#adadad"/>
  </g>
  <g id="Ellipse_16" data-name="Ellipse 16" fill="none" stroke="#adadad" stroke-width="1">
    <circle cx="17.5" cy="17.5" r="17.5" stroke="none"/>
    <circle cx="17.5" cy="17.5" r="17" fill="none"/>
  </g>
</svg>
