<svg xmlns="http://www.w3.org/2000/svg" width="61.953" height="76.703" viewBox="0 0 61.953 76.703">
  <g id="locked" transform="translate(-5)">
    <path id="Path_43" data-name="Path 43" d="M57.764,67.2H14.188A9.188,9.188,0,0,1,5,58.014V29.188A9.188,9.188,0,0,1,14.188,20H57.764a9.188,9.188,0,0,1,9.188,9.188V58.014A9.188,9.188,0,0,1,57.764,67.2Z" transform="translate(0 9.501)" fill="#c7cac7"/>
    <path id="Path_45" data-name="Path 45" d="M27.425,45.7h0A4.438,4.438,0,0,1,23,41.276v-8.85A4.438,4.438,0,0,1,27.425,28h0a4.438,4.438,0,0,1,4.425,4.425v8.85A4.438,4.438,0,0,1,27.425,45.7Z" transform="translate(8.551 13.302)" fill="#4c4c4f"/>
    <path id="Path_46" data-name="Path 46" d="M11.338,29.5H16.9V19.913C16.9,12.187,24.18,5.9,33.126,5.9s16.226,6.287,16.226,14.013V29.5h5.562c.114,0,.224.013.338.016v-9.6C55.252,8.961,45.3,0,33.126,0S11,8.961,11,19.913v9.6C11.114,29.514,11.224,29.5,11.338,29.5Z" transform="translate(2.85)" fill="#546a79"/>
  </g>
</svg>
