<svg id="Camada_1" data-name="Camada 1" xmlns="http://www.w3.org/2000/svg" viewBox="0 0 520.5 496.7"><defs><style>.cls-1{fill:none;}.cls-2{fill:#5e5e5e;}</style></defs><title>logo_clearporpuse-3</title><path d="M412.74,336.39a248.35,248.35,0,0,0,175.61,424h2.5v-10h-2.5a238.35,238.35,0,1,1,0-476.7h2.5v-10h-2.5A246.71,246.71,0,0,0,412.74,336.39Z" transform="translate(-340 -263.65)"/><rect x="425.57" y="223.48" width="94.93" height="10"/><polygon class="cls-1" points="280.25 210.02 313.02 210.02 296.68 174.05 280.25 210.02"/><path class="cls-1" d="M724.79,451.11v-.18c0-8.35-6.57-13.59-17.85-13.59H685.71v28h21C717.06,465.32,724.79,460.08,724.79,451.11Z" transform="translate(-340 -263.65)"/><path class="cls-2" d="M459.21,492.14c-14.83,0-26.29-12.26-26.29-28V464c0-15.64,11.28-27.81,26.21-27.81,9.32,0,15.54,3.91,21,9.15l3.28-3.37C477,436.1,470.32,432,459.21,432c-17.94,0-31.08,14.57-31.08,32.15v.18c0,17.85,13.14,32,30.91,32,11,0,18.12-4.35,24.69-10.84l-3.11-3C474.31,488.68,468.19,492.14,459.21,492.14Z" transform="translate(-340 -263.65)"/><polygon class="cls-2" points="197.56 227.34 161.05 227.34 161.05 169.43 156.43 169.43 156.43 231.6 197.56 231.6 197.56 227.34"/><polygon class="cls-2" points="256.09 227.34 216.03 227.34 216.03 202.38 251.65 202.38 251.65 198.12 216.03 198.12 216.03 173.69 255.64 173.69 255.64 169.43 211.41 169.43 211.41 231.6 256.09 231.6 256.09 227.34"/><polygon class="cls-2" points="518.09 309.34 478.03 309.34 478.03 284.38 513.65 284.38 513.65 280.12 478.03 280.12 478.03 255.69 517.64 255.69 517.64 251.43 473.41 251.43 473.41 313.6 518.09 313.6 518.09 309.34"/><path class="cls-2" d="M634.55,432.63l-29,62.62h4.8l7.9-17.41H655l7.9,17.41h5.06l-29-62.62Zm-14.3,41,16.43-36,16.34,36Z" transform="translate(-340 -263.65)"/><path class="cls-2" d="M685.71,469.49h20.34l19.8,25.76h5.87L711.2,468.69c10.48-1.42,18.21-7.37,18.21-17.76v-.18a16.42,16.42,0,0,0-4.71-11.55c-3.73-3.73-9.86-6.12-17.5-6.12H681.09v62.17h4.62Zm0-32.15h21.23c11.28,0,17.85,5.24,17.85,13.59v.18c0,9-7.73,14.21-18.12,14.21h-21Z" transform="translate(-340 -263.65)"/><path class="cls-2" d="M453.44,514.88H430.88v62.17h4.62V553.87h16.79c13,0,24.24-6.75,24.24-19.81v-.17C476.53,521.9,467.12,514.88,453.44,514.88Zm18.48,19.45c0,9.24-7.82,15.28-19.37,15.28H435.5V519.14h17.59c11.19,0,18.83,5.16,18.83,15Z" transform="translate(-340 -263.65)"/><path class="cls-2" d="M535.6,551.21c0,15-8.08,22.65-20.69,22.65-13.15,0-21-8.44-21-23.1V514.88h-4.62v36.33c0,17.41,10.57,26.82,25.49,26.82,15.1,0,25.49-9.5,25.49-27.36V514.88H535.6Z" transform="translate(-340 -263.65)"/><path class="cls-2" d="M606,532.73v-.18A16.4,16.4,0,0,0,601.33,521c-3.73-3.73-9.86-6.13-17.5-6.13H557.72v62.17h4.62V551.3h20.34l19.8,25.75h5.87L587.83,550.5C598.31,549.08,606,543.12,606,532.73Zm-43.7,14.39v-28h21.22c11.28,0,17.86,5.24,17.86,13.59v.18c0,9-7.73,14.21-18.12,14.21Z" transform="translate(-340 -263.65)"/><path class="cls-2" d="M644.5,514.88H621.93v62.17h4.62V553.87h16.79c13,0,24.25-6.75,24.25-19.81v-.17C667.59,521.9,658.17,514.88,644.5,514.88ZM663,534.33c0,9.24-7.82,15.28-19.36,15.28H626.55V519.14h17.59c11.19,0,18.83,5.16,18.83,15Z" transform="translate(-340 -263.65)"/><path class="cls-2" d="M709.87,513.82C691,513.82,678.51,529,678.51,546v.18c0,17,12.35,32,31.18,32S741,562.93,741,546v-.18C741,528.82,728.7,513.82,709.87,513.82Zm26.38,32.33c0,15.36-11,27.8-26.38,27.8s-26.56-12.62-26.56-28v-.18c0-15.37,11-27.8,26.38-27.8s26.56,12.61,26.56,28Z" transform="translate(-340 -263.65)"/><path class="cls-2" d="M777.55,543.66c-14.74-3-18.12-7-18.12-13.59v-.18c0-6.48,6-11.72,15.19-11.72a26.75,26.75,0,0,1,18.56,7l2.94-3.64c-6.31-5.06-12.26-7.55-21.32-7.55-11.55,0-20,7.11-20,16.34v.18c0,9.42,6,14.48,21,17.5,14.13,2.84,17.59,6.66,17.59,13.23v.18c0,7.11-6.39,12.35-15.72,12.35-9.15,0-15.45-2.93-22.29-9.24l-3,3.47c7.46,6.66,15.1,9.94,25,9.94,12,0,20.61-6.92,20.61-17v-.18C798,551.74,791.94,546.59,777.55,543.66Z" transform="translate(-340 -263.65)"/></svg>