<svg xmlns="http://www.w3.org/2000/svg" width="23.098" height="23.097" viewBox="0 0 23.098 23.097"><defs><style>.a{fill:#fff;}</style></defs><g transform="translate(-0.001 -0.015)"><g transform="translate(0.001 0.015)"><g transform="translate(0 0)"><path class="a" d="M23.1,8.868c0-.008,0-.015,0-.023a.368.368,0,0,0-.016-.079.4.4,0,0,0-.022-.067.371.371,0,0,0-.038-.058.378.378,0,0,0-.052-.061c-.006-.005-.009-.013-.015-.018l-3.7-2.875V2.708a1.155,1.155,0,0,0-1.155-1.155H13.922l-1.67-1.3a1.142,1.142,0,0,0-1.4,0l-1.671,1.3H5.005A1.155,1.155,0,0,0,3.85,2.708v2.98L.15,8.564c-.007.005-.009.012-.015.018a.378.378,0,0,0-.052.061A.368.368,0,0,0,.043,8.7a.38.38,0,0,0-.022.067.365.365,0,0,0-.016.077c0,.008,0,.015,0,.023V21.957a1.141,1.141,0,0,0,.064.364.382.382,0,0,0,.423.577,1.147,1.147,0,0,0,.667.214H21.944a1.147,1.147,0,0,0,.669-.217.38.38,0,0,0,.422-.574,1.142,1.142,0,0,0,.064-.364V8.868Zm-11.78-8a.369.369,0,0,1,.459,0l.888.689H10.433ZM1.251,22.342l10.068-7.82a.37.37,0,0,1,.459,0l10.071,7.82Zm21.078-.6L12.251,13.913a1.142,1.142,0,0,0-1.4,0L.771,21.74V9.454l6.309,4.9a.385.385,0,0,0,.472-.609L1.142,8.767l2.708-2.1V9.638a.385.385,0,1,0,.77,0V2.708a.385.385,0,0,1,.385-.385H18.094a.385.385,0,0,1,.385.385v6.93a.385.385,0,1,0,.77,0V6.663l2.708,2.1-6.42,4.986a.385.385,0,1,0,.472.608l6.32-4.907Z" transform="translate(-0.001 -0.015)"/><path class="a" d="M162.51,94.614h7.7a.385.385,0,1,0,0-.77h-7.7a.385.385,0,0,0,0,.77Z" transform="translate(-154.811 -89.611)"/><path class="a" d="M170.594,145.429a.385.385,0,0,0-.385-.385h-7.7a.385.385,0,0,0,0,.77h7.7A.385.385,0,0,0,170.594,145.429Z" transform="translate(-154.811 -138.501)"/><path class="a" d="M260.227,196.629a.385.385,0,0,0-.385-.385h-3.465a.385.385,0,0,0,0,.77h3.465A.385.385,0,0,0,260.227,196.629Z" transform="translate(-244.443 -187.391)"/></g></g></g></svg>