<svg id="MENU" xmlns="http://www.w3.org/2000/svg" width="25" height="19" viewBox="0 0 25 19">
  <path id="Path_2512" data-name="Path 2512" d="M-8.5,0h22a1.5,1.5,0,0,1,0,3h-22A1.5,1.5,0,0,1-10,1.5,1.5,1.5,0,0,1-8.5,0Z" transform="translate(10 8)" fill="#4c4c4c"/>
  <rect id="Rectangle_7" data-name="Rectangle 7" width="25" height="3" rx="1.5" transform="translate(0 16)" fill="#4c4c4c"/>
  <path id="Path_2513" data-name="Path 2513" d="M-3.5,0h22a1.5,1.5,0,0,1,0,3h-22A1.5,1.5,0,0,1-5,1.5,1.5,1.5,0,0,1-3.5,0Z" transform="translate(5)" fill="#4c4c4c"/>
</svg>
