<svg id="money" xmlns="http://www.w3.org/2000/svg" width="31.262" height="30.895" viewBox="0 0 31.262 30.895">
  <g id="Group_508" data-name="Group 508" transform="translate(18.315 15.46)">
    <g id="Group_507" data-name="Group 507">
      <path id="Path_74" data-name="Path 74" d="M302.518,260.607a1.175,1.175,0,1,1,1.343-1.163.611.611,0,0,0,1.221,0,2.429,2.429,0,0,0-1.954-2.315v-.318a.611.611,0,1,0-1.221,0v.318a2.429,2.429,0,0,0-1.954,2.315,2.482,2.482,0,0,0,2.564,2.384,1.175,1.175,0,1,1-1.343,1.163.611.611,0,0,0-1.221,0,2.43,2.43,0,0,0,1.954,2.315v.264a.611.611,0,1,0,1.221,0v-.264a2.429,2.429,0,0,0,1.954-2.315A2.482,2.482,0,0,0,302.518,260.607Z" transform="translate(-299.954 -256.201)" fill="#8e8973"/>
    </g>
  </g>
  <g id="Group_510" data-name="Group 510" transform="translate(23.442 13.298)">
    <g id="Group_509" data-name="Group 509">
      <path id="Path_75" data-name="Path 75" d="M388.049,223.721a7.956,7.956,0,0,0-3.25-2.876.611.611,0,1,0-.529,1.1,6.722,6.722,0,0,1,3.028,9.207.611.611,0,1,0,1.078.574,7.947,7.947,0,0,0-.327-8.005Z" transform="translate(-383.924 -220.785)" fill="#8e8973"/>
    </g>
  </g>
  <g id="Group_512" data-name="Group 512" transform="translate(21.187 12.578)">
    <g id="Group_511" data-name="Group 511">
      <path id="Path_76" data-name="Path 76" d="M347.652,209h-.041a.611.611,0,1,0,0,1.221h.038a.611.611,0,0,0,0-1.221Z" transform="translate(-347 -209.001)" fill="#8e8973"/>
    </g>
  </g>
  <g id="Group_514" data-name="Group 514" transform="translate(12.944 16.468)">
    <g id="Group_513" data-name="Group 513">
      <path id="Path_77" data-name="Path 77" d="M217.034,282.816a6.722,6.722,0,0,1-3.027-9.207.611.611,0,0,0-1.078-.574,7.941,7.941,0,0,0,3.577,10.881.611.611,0,1,0,.529-1.1Z" transform="translate(-212.002 -272.711)" fill="#8e8973"/>
    </g>
  </g>
  <g id="Group_516" data-name="Group 516" transform="translate(19.318 27.232)">
    <g id="Group_515" data-name="Group 515">
      <path id="Path_78" data-name="Path 78" d="M317.027,449h-.035a.611.611,0,1,0-.006,1.221h.041a.611.611,0,1,0,0-1.221Z" transform="translate(-316.378 -448.999)" fill="#8e8973"/>
    </g>
  </g>
  <g id="Group_518" data-name="Group 518" transform="translate(0 0)">
    <g id="Group_517" data-name="Group 517">
      <path id="Path_79" data-name="Path 79" d="M23.655,13.512a2.8,2.8,0,0,0-.271-.5h1.59a2.809,2.809,0,1,0,0-5.617h-4.89A2.807,2.807,0,0,0,17.768,3H2.809a2.809,2.809,0,1,0,0,5.617H7.7a2.8,2.8,0,0,0,0,3.175H6.106A2.807,2.807,0,0,0,4.36,16.8a2.8,2.8,0,0,0,0,4.4,2.8,2.8,0,0,0,0,4.4A2.807,2.807,0,0,0,6.106,30.6h7.2A10.378,10.378,0,1,0,23.655,13.512Zm1.318-4.895a1.588,1.588,0,1,1,0,3.175H10.014a1.588,1.588,0,1,1,0-3.175ZM2.809,7.4a1.588,1.588,0,1,1,0-3.175H17.768a1.588,1.588,0,1,1,0,3.175Zm3.3,5.617H21.065a1.587,1.587,0,0,1,.693.159c-.289-.024-.581-.037-.876-.037a10.348,10.348,0,0,0-7.345,3.053H6.106a1.588,1.588,0,1,1,0-3.175Zm0,4.4h6.388a10.35,10.35,0,0,0-1.569,3.175H6.106a1.588,1.588,0,1,1,0-3.175Zm0,4.4h4.538a10.388,10.388,0,0,0-.038,3.175h-4.5a1.588,1.588,0,1,1,0-3.175Zm0,7.571a1.588,1.588,0,1,1,0-3.175h4.749a10.339,10.339,0,0,0,1.465,3.175Zm14.776,3.3a9.159,9.159,0,1,1,9.159-9.159A9.169,9.169,0,0,1,20.882,32.674Z" transform="translate(0 -3)" fill="#8e8973"/>
    </g>
  </g>
</svg>
