<svg xmlns="http://www.w3.org/2000/svg" width="42.404" height="31.129" viewBox="0 0 42.404 31.129">
  <g id="Group_522" data-name="Group 522" transform="translate(0 0)">
    <g id="Group_521" data-name="Group 521">
      <path id="Path_81" data-name="Path 81" d="M40.508,90.922l-2.565-.733a.26.26,0,0,1-.188-.249v-.856a4.669,4.669,0,0,0,.594-.487,4.569,4.569,0,0,0,1.4-3.306V84.109l.248-.5a3.963,3.963,0,0,0,.416-1.763v-3.2a.621.621,0,0,0-.621-.621H33.813a3.946,3.946,0,0,0-3.942,3.942v.037a3.3,3.3,0,0,0,.346,1.466l.318.636v1.015a4.847,4.847,0,0,0,1.992,3.919v.9c0,.138,0,.2-.513.342l-1.252.358-3.621-1.317a.62.62,0,0,0-.169-.476l-1.157-1.216V85.591c.122-.1.243-.2.36-.314a7.29,7.29,0,0,0,2.3-5.3v-1.63a7.18,7.18,0,0,0,.664-3.019V68.687a.621.621,0,0,0-.621-.621h-9.3A5.941,5.941,0,0,0,13.283,74v1.328a7.18,7.18,0,0,0,.664,3.019v1.4A7.59,7.59,0,0,0,16.6,85.543v2.089l-1.157,1.216a.62.62,0,0,0-.169.476l-3.822,1.39a3.258,3.258,0,0,0-.768.4l-.6-.3a4.744,4.744,0,0,0,2.38-1.926.621.621,0,0,0,0-.556,11.035,11.035,0,0,1-.546-3.856c-.014-.439-.028-.854-.054-1.223A5.4,5.4,0,0,0,6.6,78.028,5.4,5.4,0,0,0,1.33,83.254c-.026.369-.04.784-.054,1.223A11.035,11.035,0,0,1,.73,88.334a.621.621,0,0,0,0,.556,4.743,4.743,0,0,0,2.382,1.924l-1.667.833A2.6,2.6,0,0,0,0,93.985v4.589a.621.621,0,1,0,1.242,0V93.985A1.364,1.364,0,0,1,2,92.758L4.076,91.72l.722.686a2.612,2.612,0,0,0,3.6,0l.722-.686.677.338a3.271,3.271,0,0,0-.5,1.734v4.781a.621.621,0,0,0,1.242,0V93.793a2.042,2.042,0,0,1,1.34-1.913l4.029-1.465,1.677,2.516a1.281,1.281,0,0,0,.943.566q.064.006.128.006a1.28,1.28,0,0,0,.907-.377L20.589,92.1v6.47a.621.621,0,0,0,1.242,0V92.1l1.023,1.023a1.28,1.28,0,0,0,.907.377q.064,0,.128-.006a1.281,1.281,0,0,0,.943-.566l1.677-2.516,4.029,1.465a2.042,2.042,0,0,1,1.34,1.913v4.781a.621.621,0,0,0,1.242,0V93.793a3.284,3.284,0,0,0-.919-2.273l.153-.044a3.405,3.405,0,0,0,.578-.209l1.586,1.586v5.72a.621.621,0,0,0,1.242,0v-5.72l1.575-1.575a1.478,1.478,0,0,0,.264.1l2.565.733a1.377,1.377,0,0,1,.995,1.319v5.138a.621.621,0,0,0,1.242,0V93.436A2.625,2.625,0,0,0,40.508,90.922Zm-36.523-1.1a4.465,4.465,0,0,1-1.993-1.28,6.847,6.847,0,0,0,.354-1.487,4.632,4.632,0,0,0,1.639,2.023Zm3.558,1.681a1.371,1.371,0,0,1-1.889,0l-.578-.549a1.285,1.285,0,0,0,.151-.607v-.662a4.619,4.619,0,0,0,2.743,0v.662a1.285,1.285,0,0,0,.151.607ZM6.6,88.655a3.367,3.367,0,0,1-3.364-3.364.617.617,0,0,0-.723-.612c0-.053,0-.107.005-.16.014-.427.027-.831.052-1.177a4.612,4.612,0,0,1,1.256-2.9,3.859,3.859,0,0,1,5.547,0,4.612,4.612,0,0,1,1.256,2.9c.025.346.038.749.052,1.176l0,.111a5.581,5.581,0,0,0-3.068-2.242,7.8,7.8,0,0,0-2.363-.374.621.621,0,0,0-.43.19L3.7,83.365a.621.621,0,0,0,.894.862l.933-.967c.8.039,3.387.34,4.392,2.552A3.356,3.356,0,0,1,6.6,88.655Zm2.613,1.172v-.741a4.6,4.6,0,0,0,1.64-2.025,6.838,6.838,0,0,0,.354,1.484A4.487,4.487,0,0,1,9.212,89.827ZM15.189,79.75V78.209a.621.621,0,0,0-.062-.27,5.958,5.958,0,0,1-.6-2.61V74a4.7,4.7,0,0,1,4.692-4.692h8.677v6.02a5.958,5.958,0,0,1-.6,2.61.621.621,0,0,0-.062.27v1.769a5.963,5.963,0,0,1-1.9,4.393,6.179,6.179,0,0,1-.477.4l-.011.008a5.973,5.973,0,0,1-4.031,1.2A6.152,6.152,0,0,1,15.189,79.75Zm3.5,12.5a.043.043,0,0,1-.066-.007l-1.932-2.9.622-.653,2.931,2Zm2.523-2.4-3.364-2.3V86.393a6.994,6.994,0,0,0,2.881.832q.246.016.489.016a7.2,7.2,0,0,0,3.357-.823v1.135ZM23.8,92.242a.039.039,0,0,1-.032.019.038.038,0,0,1-.035-.012l-1.554-1.554,2.931-2,.622.653Zm11.342-.524-1.41-1.41a1.7,1.7,0,0,0,.038-.369v-.262a4.355,4.355,0,0,0,1.23.217l.143,0a4.614,4.614,0,0,0,1.37-.207v.25a1.485,1.485,0,0,0,.045.362Zm2.342-4.013a3.338,3.338,0,0,1-2.446.948,3.477,3.477,0,0,1-3.26-3.529V83.963a.621.621,0,0,0-.066-.278l-.384-.767a2.046,2.046,0,0,1-.215-.91V81.97a2.7,2.7,0,0,1,2.7-2.7h5.356v2.58a2.714,2.714,0,0,1-.285,1.207l-.314.627a.621.621,0,0,0-.066.278v1.328A3.337,3.337,0,0,1,37.484,87.705Z" transform="translate(0 -68.066)" fill="#8e8973"/>
    </g>
  </g>
</svg>
