<svg xmlns="http://www.w3.org/2000/svg" width="40" height="40" viewBox="0 0 40 40">
  <g id="Group_596" data-name="Group 596" transform="translate(-1739 -753)">
    <g id="Ellipse_12" data-name="Ellipse 12" transform="translate(1739 753)" fill="#fff" stroke="#556080" stroke-width="1">
      <circle cx="20" cy="20" r="20" stroke="none"/>
      <circle cx="20" cy="20" r="19.5" fill="none"/>
    </g>
    <g id="share" transform="translate(1739.584 754.727)">
      <path id="Path_53" data-name="Path 53" d="M196.583,178.43a.731.731,0,0,1-.363-1.367l6.787-3.87a.731.731,0,1,1,.725,1.27l-6.787,3.87A.725.725,0,0,1,196.583,178.43Zm0,0" transform="translate(-181.353 -160.282)" fill="#b4b8c4"/>
      <path id="Path_54" data-name="Path 54" d="M203.358,266.43a.719.719,0,0,1-.361-.1l-6.787-3.87a.731.731,0,1,1,.725-1.27l6.787,3.87a.731.731,0,0,1-.364,1.367Zm0,0" transform="translate(-181.343 -242.252)" fill="#b4b8c4"/>
      <g id="Group_473" data-name="Group 473" transform="translate(8.793 7.776)">
        <path id="Path_55" data-name="Path 55" d="M295.149,302.231a3.574,3.574,0,1,1-3.574-3.574A3.574,3.574,0,0,1,295.149,302.231Zm0,0" transform="translate(-275.49 -284.361)" fill="#556080"/>
        <path id="Path_56" data-name="Path 56" d="M295.149,131.574A3.574,3.574,0,1,1,291.574,128,3.574,3.574,0,0,1,295.149,131.574Zm0,0" transform="translate(-275.49 -128)" fill="#556080"/>
        <path id="Path_57" data-name="Path 57" d="M145.805,216.9a3.574,3.574,0,1,1-3.574-3.574A3.574,3.574,0,0,1,145.805,216.9Zm0,0" transform="translate(-138.656 -206.181)" fill="#556080"/>
      </g>
    </g>
  </g>
</svg>
