<svg xmlns="http://www.w3.org/2000/svg" width="39.999" height="40.027" viewBox="0 0 39.999 40.027">
  <g id="Group_476" data-name="Group 476" transform="translate(-1620.027 -752.973)">
    <g id="user" transform="translate(1620.027 752.973)">
      <path id="Path_60" data-name="Path 60" d="M16.362,33.323l-5.968,3.255a5.363,5.363,0,0,0-.958.682,19.987,19.987,0,0,0,25.681.066,5.294,5.294,0,0,0-1.052-.7l-6.39-3.195a2.437,2.437,0,0,1-1.347-2.18V28.739a9.652,9.652,0,0,0,.6-.777,14.7,14.7,0,0,0,1.986-4,2.007,2.007,0,0,0,1.423-1.909V19.373a2,2,0,0,0-.669-1.483V14.021S30.469,8,22.316,8s-7.359,6.02-7.359,6.02V17.89a2,2,0,0,0-.669,1.483v2.676a2.006,2.006,0,0,0,.925,1.684,13.281,13.281,0,0,0,2.42,5.006v2.445A2.439,2.439,0,0,1,16.362,33.323Z" transform="translate(-2.315 -1.962)" fill="#e7eced"/>
      <g id="Group_475" data-name="Group 475" transform="translate(0 0)">
        <path id="Path_61" data-name="Path 61" d="M20.342,0A19.987,19.987,0,0,0,7.131,35.291a5.314,5.314,0,0,1,.949-.675l5.968-3.255a2.438,2.438,0,0,0,1.27-2.14V26.776A13.268,13.268,0,0,1,12.9,21.77a2.007,2.007,0,0,1-.925-1.684V17.41a2,2,0,0,1,.669-1.483V12.058S11.846,6.038,20,6.038s7.358,6.02,7.358,6.02v3.869a2,2,0,0,1,.669,1.483v2.676A2.007,2.007,0,0,1,26.6,22a14.7,14.7,0,0,1-1.986,4,9.652,9.652,0,0,1-.6.777v2.507a2.436,2.436,0,0,0,1.347,2.18l6.39,3.195a5.321,5.321,0,0,1,1.049.7A20,20,0,0,0,20.342,0Z" transform="translate(0 0)" fill="#556080"/>
      </g>
    </g>
    <g id="Ellipse_10" data-name="Ellipse 10" transform="translate(1645 778)" fill="#fff" stroke="#556080" stroke-width="1">
      <circle cx="7.5" cy="7.5" r="7.5" stroke="none"/>
      <circle cx="7.5" cy="7.5" r="7" fill="none"/>
    </g>
    <line id="Line_26" data-name="Line 26" y2="8" transform="translate(1652.5 781.5)" fill="none" stroke="#556080" stroke-linecap="round" stroke-width="2"/>
    <line id="Line_27" data-name="Line 27" y2="8" transform="translate(1656.5 785.5) rotate(90)" fill="none" stroke="#556080" stroke-linecap="round" stroke-width="2"/>
  </g>
</svg>
