<svg xmlns="http://www.w3.org/2000/svg" width="40" height="40" viewBox="0 0 40 40">
  <g id="Group_595" data-name="Group 595" transform="translate(-1689 -753)">
    <g id="Ellipse_11" data-name="Ellipse 11" transform="translate(1689 753)" fill="#fff" stroke="#556080" stroke-width="1">
      <circle cx="20" cy="20" r="20" stroke="none"/>
      <circle cx="20" cy="20" r="19.5" fill="none"/>
    </g>
    <g id="send-2" transform="translate(1698.568 762.495)">
      <path id="Path_62" data-name="Path 62" d="M4.293,11.452A.356.356,0,0,1,4.1,11.4L.17,8.895a.357.357,0,0,1,.06-.634L20.958.041a.357.357,0,0,1,.324.634L4.485,11.4A.36.36,0,0,1,4.293,11.452ZM1.144,8.668l3.149,2L17.746,2.084Zm0,0" transform="translate(-0.005 -0.009)" fill="#556080"/>
      <path id="Path_63" data-name="Path 63" d="M97.09,18.25a.357.357,0,0,1-.329-.219L93.9,11.241a.357.357,0,0,1,.137-.44L110.836.08a.358.358,0,0,1,.442.558L98.14,13.42l-.7,4.528a.357.357,0,0,1-.31.3Zm-2.413-7.008,2.252,5.348.523-3.4a.356.356,0,0,1,.1-.2L108.271,2.565Zm0,0" transform="translate(-89.943 -0.016)" fill="#556080"/>
      <path id="Path_64" data-name="Path 64" d="M185.993,17.162a.358.358,0,0,1-.174-.045l-6.433-3.574a.357.357,0,0,1-.075-.569L192.534.108a.357.357,0,0,1,.579.393l-6.79,16.44a.357.357,0,0,1-.213.2A.35.35,0,0,1,185.993,17.162Zm-5.839-4.01,5.662,3.146,5.977-14.47Zm0,0" transform="translate(-171.699 0)" fill="#556080"/>
      <path id="Path_65" data-name="Path 65" d="M.357,301.894a.357.357,0,0,1-.253-.61l2.5-2.5a.357.357,0,1,1,.505.505l-2.5,2.5A.355.355,0,0,1,.357,301.894Zm0,0" transform="translate(0 -286.162)" fill="#b4b8c4"/>
      <path id="Path_66" data-name="Path 66" d="M.357,479.307A.357.357,0,0,1,.1,478.7l.715-.715a.357.357,0,1,1,.505.505l-.715.715A.355.355,0,0,1,.357,479.307Zm0,0" transform="translate(0 -457.856)" fill="#b4b8c4"/>
      <path id="Path_67" data-name="Path 67" d="M43.024,403.935a.357.357,0,0,1-.253-.61l2.144-2.144a.357.357,0,1,1,.505.505l-2.144,2.144A.354.354,0,0,1,43.024,403.935Zm0,0" transform="translate(-40.88 -384.272)" fill="#b4b8c4"/>
      <path id="Path_68" data-name="Path 68" d="M171.024,487.481a.357.357,0,0,1-.253-.61l.357-.357a.357.357,0,1,1,.505.505l-.357.357A.355.355,0,0,1,171.024,487.481Zm0,0" transform="translate(-163.519 -466.031)" fill="#b4b8c4"/>
      <path id="Path_69" data-name="Path 69" d="M205.156,420.644a.357.357,0,0,1-.253-.61l1.787-1.787a.357.357,0,1,1,.505.505l-1.787,1.787A.355.355,0,0,1,205.156,420.644Zm0,0" transform="translate(-196.223 -400.624)" fill="#b4b8c4"/>
    </g>
  </g>
</svg>
