<svg xmlns="http://www.w3.org/2000/svg" width="15.845" height="15.036" viewBox="0 0 15.845 15.036"><defs><style>.a{fill:none;}.b,.c{stroke:none;}.c{fill:#f64710;}</style></defs><g transform="translate(0 -13.066)"><g class="a" transform="translate(0 0)"><path class="b" d="M15.447,18.443l-4.894-.715L8.309,13.3a.492.492,0,0,0-.836,0l-2.182,4.43L.4,18.443a.465.465,0,0,0-.26.789l3.538,3.455-.836,4.866a.468.468,0,0,0,.678.492l4.374-2.3,4.436,2.3A.466.466,0,0,0,13,27.553l-.836-4.866,3.538-3.455A.465.465,0,0,0,15.447,18.443Z"/><path class="c" d="M 7.897904872894287 14.69916152954102 L 6.18800163269043 18.16977882385254 L 5.955680847167969 18.64132881164551 L 5.435521125793457 18.71732711791992 L 1.613140106201172 19.2757625579834 L 4.373801231384277 21.97124862670898 L 4.74968147277832 22.33824729919434 L 4.660760879516602 22.85600852966309 L 4.008059501647949 26.65649795532227 L 7.425331115722656 24.85713768005371 L 7.887980937957764 24.61352729797363 L 8.352031707763672 24.85445785522461 L 11.83767318725586 26.66419792175293 L 11.18367099761963 22.85600852966309 L 11.09475135803223 22.33824729919434 L 11.47063064575195 21.97124862670898 L 14.23127937316895 19.2757682800293 L 10.40880107879639 18.71729850769043 L 9.89569091796875 18.6423282623291 L 9.661331176757813 18.17974853515625 L 7.897904872894287 14.69916152954102 M 7.891241073608398 13.06599807739258 C 8.058351516723633 13.06599807739258 8.225551605224609 13.14033699035645 8.309110641479492 13.29815864562988 L 10.55337142944336 17.72779846191406 L 15.44736099243164 18.44281768798828 C 15.82801151275635 18.4985179901123 15.97664070129395 18.96283721923828 15.70731163024902 19.23219871520996 L 12.16924095153809 22.68674850463867 L 13.00492095947266 27.55282783508301 C 13.05626964569092 27.8533878326416 12.81836700439453 28.10185623168945 12.54679489135742 28.10185623168945 C 12.47432994842529 28.10185623168945 12.39943981170654 28.08415222167969 12.32704162597656 28.04502868652344 L 7.891241073608398 25.74196815490723 L 3.517360687255859 28.04502868652344 C 3.446144104003906 28.08159255981445 3.372583389282227 28.09821319580078 3.30121898651123 28.09821319580078 C 3.028183937072754 28.09821319580078 2.787886619567871 27.85468864440918 2.839481353759766 27.55282783508301 L 3.675190925598145 22.68674850463867 L 0.137110710144043 19.23219871520996 C -0.1322383880615234 18.96287727355957 0.01639080047607422 18.4985179901123 0.3970308303833008 18.44281768798828 L 5.290961265563965 17.72782707214355 L 7.473371505737305 13.29815864562988 C 7.556921005249023 13.14033699035645 7.72413158416748 13.06599807739258 7.891241073608398 13.06599807739258 Z"/></g></g></svg>