<svg xmlns="http://www.w3.org/2000/svg" width="20" height="20" viewBox="0 0 20 20">
  <path id="user-2" d="M20,10A10,10,0,1,0,3.246,17.367l-.009.008.324.273c.021.018.044.032.065.05.172.143.351.279.533.41.059.043.118.085.178.127q.291.2.6.381l.134.077c.223.127.451.247.684.356l.052.023a9.91,9.91,0,0,0,2.419.765l.067.012c.263.045.529.082.8.106l.1.008c.268.022.54.036.815.036s.541-.014.808-.036l.1-.008q.4-.037.792-.1l.068-.012a9.91,9.91,0,0,0,2.384-.747l.083-.038q.337-.158.659-.34l.16-.092c.2-.115.388-.236.575-.364.067-.046.133-.094.2-.142.16-.115.316-.233.469-.357.034-.027.07-.051.1-.079l.333-.278-.01-.008A9.974,9.974,0,0,0,20,10ZM.727,10a9.273,9.273,0,1,1,15.422,6.932,2.725,2.725,0,0,0-.325-.2L12.746,15.2a.806.806,0,0,1-.448-.725V13.4c.071-.088.147-.188.224-.3a7.41,7.41,0,0,0,.951-1.863,1.32,1.32,0,0,0,.758-1.2V8.752a1.323,1.323,0,0,0-.323-.861v-1.7a2.933,2.933,0,0,0-.685-2.132A4.093,4.093,0,0,0,10,2.909,4.094,4.094,0,0,0,6.776,4.061a2.933,2.933,0,0,0-.685,2.132v1.7a1.325,1.325,0,0,0-.323.861v1.289a1.323,1.323,0,0,0,.487,1.026A6.833,6.833,0,0,0,7.38,13.39v1.052a.811.811,0,0,1-.423.712L4.083,16.723a2.628,2.628,0,0,0-.273.173A9.25,9.25,0,0,1,.727,10ZM15.44,17.5c-.127.092-.257.182-.388.267-.06.039-.12.079-.182.117-.172.106-.346.207-.524.3l-.119.061a9.266,9.266,0,0,1-1.268.537l-.046.016q-.342.113-.692.2h0c-.236.058-.474.107-.714.146l-.02,0c-.226.037-.453.063-.682.083l-.121.009c-.226.017-.453.028-.681.028s-.46-.011-.689-.028l-.119-.009c-.231-.02-.46-.048-.687-.085l-.031-.005a9.238,9.238,0,0,1-1.415-.353l-.043-.015q-.343-.117-.677-.259l0,0c-.21-.091-.416-.191-.62-.3l-.08-.041c-.186-.1-.368-.207-.547-.319l-.158-.1c-.165-.108-.328-.22-.487-.339L4.4,17.381l.035-.02,2.875-1.568a1.538,1.538,0,0,0,.8-1.351v-1.31l-.084-.1a6.072,6.072,0,0,1-1.091-2.26L6.9,10.627l-.124-.08a.6.6,0,0,1-.28-.506V8.752a.594.594,0,0,1,.2-.445l.12-.108V6.173l0-.048A2.19,2.19,0,0,1,7.323,4.54,3.427,3.427,0,0,1,10,3.636a3.435,3.435,0,0,1,2.671.9,2.227,2.227,0,0,1,.514,1.593l0,2.073.12.108a.6.6,0,0,1,.2.445v1.289a.607.607,0,0,1-.429.573l-.181.056-.058.18a6.727,6.727,0,0,1-.908,1.83c-.1.135-.188.254-.268.345l-.09.1v1.345a1.529,1.529,0,0,0,.85,1.375L15.5,17.387l.058.03C15.519,17.447,15.479,17.474,15.44,17.5Z" fill="#005187"/>
</svg>
