<svg id="work" xmlns="http://www.w3.org/2000/svg" width="17.525" height="15.403" viewBox="0 0 17.525 15.403">
  <path id="Path_25" data-name="Path 25" d="M211,240h3.081v1.027H211Zm0,0" transform="translate(-203.778 -231.785)" fill="#958f78"/>
  <path id="Path_26" data-name="Path 26" d="M14.218,84H11.33v.513a.513.513,0,0,1-.513.513H6.709a.513.513,0,0,1-.513-.513V84H3.307a1.539,1.539,0,0,1-1.461-1.053L0,77.41V88.623a1.542,1.542,0,0,0,1.54,1.54H15.985a1.542,1.542,0,0,0,1.54-1.54V77.411l-1.846,5.539A1.538,1.538,0,0,1,14.218,84Zm0,0" transform="translate(0 -74.761)" fill="#958f78"/>
  <path id="Path_27" data-name="Path 27" d="M35.741,0H31.634a1.542,1.542,0,0,0-1.54,1.54v.513H25.809l1.936,5.81a.513.513,0,0,0,.487.351h2.888V7.7a.513.513,0,0,1,.513-.513h4.107a.513.513,0,0,1,.513.513v.513h2.888a.513.513,0,0,0,.487-.351l1.937-5.81H37.282V1.54A1.542,1.542,0,0,0,35.741,0ZM31.121,2.054V1.54a.514.514,0,0,1,.513-.513h4.107a.514.514,0,0,1,.513.513v.513Zm0,0" transform="translate(-24.925 0)" fill="#958f78"/>
</svg>
